<svg version="1.1" 
  xmlns="http://www.w3.org/2000/svg" 
  xmlns:xlink="http://www.w3.org/1999/xlink" x="0px" y="0px" width="1600px" height="994.191px" viewBox="0 0 1600 994.191" enable-background="new 0 0 1600 994.191" xml:space="preserve">


  <g id="Ebene_1">
  </g>
  <g id="Ebene_41">
  </g>
  <g id="Ebene_40">
    <path d="M214.39,153.106c31.846,0,57.663-25.816,57.663-57.663c0-31.844-25.817-57.66-57.663-57.66
                c-31.846,0-57.663,25.816-57.663,57.66C156.727,127.29,182.544,153.106,214.39,153.106"></path>
    <path d="M110.674,19.804H29.268v151.28h81.406V19.804z M102.335,162.745H37.606V28.144h64.729V162.745z"></path>
    <path d="M110.674,396.54H29.268v151.28h81.406V396.54z M102.335,539.481H37.606V404.879h64.729V539.481z"></path>
    <path d="M110.674,819.675H29.268v151.279h81.406V819.675z M102.335,962.616H37.606V828.014h64.729V962.616z"></path>
    <polygon points="277,89 277,98 601,98 601,113 609,113 609,89 	"></polygon>
    <rect x="116.128" y="89.688" width="35.809" height="8.339"></rect>
    <path id="Ebene_Takt" d="M214.067,529.84c31.846,0,57.663-25.816,57.663-57.661c0-31.846-25.817-57.662-57.663-57.662s-57.663,25.816-57.663,57.662
                C156.404,504.024,182.221,529.84,214.067,529.84" data-svg-origin="156.40402221679688 414.51702880859375" style="transform: matrix(1, 0, 0, 1, 0, 0);"></path>
    <rect x="276.199" y="466.421" width="331.358" height="8.339"></rect>
    <rect id="small-p" x="116.128" y="466.421" height="8.339"></rect>
    <path d="M214.068,952.976c31.846,0,57.663-25.815,57.663-57.663c0-31.844-25.817-57.661-57.663-57.661
                c-31.846,0-57.663,25.817-57.663,57.661C156.405,927.161,182.222,952.976,214.068,952.976"></path>
    <rect x="116.128" y="889.557" width="35.809" height="8.339"></rect>
    <path d="M458,833v56H277v9h180.348H660v-8.442V833H458z M466,841h186v48H466V841z"></path>
    <path d="M504.337,726.681h-102.95v-8.299h102.95V726.681z M504.337,575.687h-102.95v-8.299h102.95V575.687z"></path>
    <rect x="1572.752" y="19.804" width="8.299" height="948.925"></rect>
    <polygon points="1531.258,358.178 1473.997,358.178 1473.997,349.879 1522.959,349.879 1522.959,141.199 1473.997,141.199 
                1473.997,132.9 1531.258,132.9 	"></polygon>
    <polygon points="1293.403,970.955 1285.104,970.955 1285.104,673.853 1332.485,673.853 1332.485,682.152 1293.403,682.152 	"></polygon>
    <rect fill="none" width="1600" height="994.191"></rect>
  </g>
  <g id="Ebene_39">
    <g>
      <defs>
        <rect id="SVGID_1_" x="839.036" y="19.632" width="23.522" height="23.522"></rect>
      </defs>
      <clippath id="SVGID_2_">
        <use xlink:href="#SVGID_1_" overflow="visible"></use>
      </clippath>
      <path clip-path="url(#SVGID_2_)" d="M839.036,31.392c0-6.496,5.266-11.763,11.763-11.763c6.494,0,11.761,5.267,11.761,11.763
                    c0,6.496-5.267,11.763-11.761,11.763C844.302,43.155,839.036,37.888,839.036,31.392"></path>
    </g>
  </g>
  <g id="Ebene_38">
    <g>
      <defs>
        <rect id="SVGID_3_" x="989.962" y="19.632" width="23.523" height="23.522"></rect>
      </defs>
      <clippath id="SVGID_4_">
        <use xlink:href="#SVGID_3_" overflow="visible"></use>
      </clippath>
      <path clip-path="url(#SVGID_4_)" d="M989.962,31.392c0-6.496,5.266-11.763,11.763-11.763c6.494,0,11.762,5.267,11.762,11.763
                    c0,6.496-5.268,11.763-11.762,11.763C995.228,43.155,989.962,37.888,989.962,31.392"></path>
    </g>
  </g>
  <g id="Ebene_37">
    <g>
      <defs>
        <rect id="SVGID_5_" x="681.91" y="19.632" width="23.522" height="23.522"></rect>
      </defs>
      <clippath id="SVGID_6_">
        <use xlink:href="#SVGID_5_" overflow="visible"></use>
      </clippath>
      <path clip-path="url(#SVGID_6_)" d="M681.91,31.392c0-6.496,5.266-11.763,11.763-11.763c6.494,0,11.761,5.267,11.761,11.763
                    c0,6.496-5.267,11.763-11.761,11.763C687.176,43.155,681.91,37.888,681.91,31.392"></path>
    </g>
  </g>
  <g id="Ebene_36">
    <g>
      <defs>
        <rect id="SVGID_7_" x="530.916" y="19.632" width="23.523" height="23.522"></rect>
      </defs>
      <clippath id="SVGID_8_">
        <use xlink:href="#SVGID_7_" overflow="visible"></use>
      </clippath>
      <path clip-path="url(#SVGID_8_)" d="M530.917,31.392c0-6.496,5.266-11.763,11.763-11.763c6.494,0,11.761,5.267,11.761,11.763
                    c0,6.496-5.267,11.763-11.761,11.763C536.183,43.155,530.917,37.888,530.917,31.392"></path>
    </g>
  </g>
  <g id="Ebene_35">
    <g>
      <defs>
        <rect id="SVGID_9_" width="1600" height="994.191"></rect>
      </defs>
      <clippath id="SVGID_10_">
        <use xlink:href="#SVGID_9_" overflow="visible"></use>
      </clippath>
      <rect x="1268.507" y="673.992" clip-path="url(#SVGID_10_)" width="8.299" height="296.963"></rect>
      <rect x="1139.038" y="514.48" clip-path="url(#SVGID_10_)" width="131.1" height="8.299"></rect>
      <polygon clip-path="url(#SVGID_10_)" points="1346.253,636.749 1227.17,539.844 1139.039,539.844 1139.039,531.545 
                    1230.12,531.545 1351.492,630.313 		"></polygon>
      <rect x="1539.557" y="19.804" clip-path="url(#SVGID_10_)" width="8.299" height="948.925"></rect>
      <rect x="1556.154" y="19.804" clip-path="url(#SVGID_10_)" width="8.299" height="948.925"></rect>
    </g>
  </g>
  <g id="Ebene_34">
    <rect x="921.19" y="66.531" width="8.299" height="300.274"></rect>
  </g>
  <g id="Ebene_33">
    <rect x="839.036" y="66.531" width="8.299" height="300.274"></rect>
  </g>
  <g id="Ebene_32">
    <rect x="866.42" y="66.531" width="8.299" height="300.274"></rect>
  </g>
  <g id="Ebene_31">
    <rect x="893.804" y="66.531" width="8.3" height="300.274"></rect>
  </g>
  <g id="Ebene_30">
    <g>
      <defs>
        <rect id="SVGID_11_" x="635.393" y="559.778" width="23.523" height="23.522"></rect>
      </defs>
      <clippath id="SVGID_12_">
        <use xlink:href="#SVGID_11_" overflow="visible"></use>
      </clippath>
      <path clip-path="url(#SVGID_12_)" d="M647.154,583.3c-6.496,0-11.763-5.267-11.763-11.764c0-6.494,5.267-11.761,11.763-11.761
                    s11.763,5.267,11.763,11.761C658.917,578.034,653.65,583.3,647.154,583.3"></path>
    </g>
  </g>
  <g id="Ebene_29">
    <g>
      <defs>
        <rect id="SVGID_13_" x="635.393" y="710.771" width="23.523" height="23.522"></rect>
      </defs>
      <clippath id="SVGID_14_">
        <use xlink:href="#SVGID_13_" overflow="visible"></use>
      </clippath>
      <path clip-path="url(#SVGID_14_)" d="M647.154,734.292c-6.496,0-11.763-5.266-11.763-11.763c0-6.494,5.267-11.761,11.763-11.761
                    s11.763,5.267,11.763,11.761C658.917,729.027,653.65,734.292,647.154,734.292"></path>
    </g>
  </g>
  <g id="Ebene_28" data-svg-origin="281.57305908203125 514.1530151367188" style="transform: matrix(1, 0, 0, 1, 0, 0);">
    <g>
      <defs>
        <rect id="SVGID_15_" width="1600" height="994.191"></rect>
      </defs>
      <clippath id="SVGID_16_">
        <use xlink:href="#SVGID_15_" overflow="visible"></use>
      </clippath>
      <path clip-path="url(#SVGID_16_)" d="M338.959,628.924c31.693,0,57.386-25.691,57.386-57.387
                    c0-31.692-25.693-57.384-57.386-57.384c-31.693,0-57.386,25.691-57.386,57.384C281.573,603.233,307.266,628.924,338.959,628.924"></path>
    </g>
  </g>
  <g id="Ebene_27" data-svg-origin="281.57305908203125 665.1470336914062" style="transform: matrix(1, 0, 0, 1, 0, 0);">
    <g>
      <defs>
        <rect id="SVGID_17_" width="1600" height="994.191"></rect>
      </defs>
      <clippath id="SVGID_18_">
        <use xlink:href="#SVGID_17_" overflow="visible"></use>
      </clippath>
      <path clip-path="url(#SVGID_18_)" d="M338.959,779.917c31.693,0,57.386-25.69,57.386-57.386c0-31.693-25.693-57.384-57.386-57.384
                    c-31.693,0-57.386,25.69-57.386,57.384C281.573,754.226,307.266,779.917,338.959,779.917"></path>
    </g>
  </g>
  <g id="Ebene_26">
    <rect x="599.753" y="466.422" width="8.339" height="359.592"></rect>
  </g>
  <g id="Ebene_25">
    <rect x="599.753" y="904.037" width="8.339" height="66.918"></rect>
  </g>
  <g id="Ebene_24">
    <rect x="568.342" y="466.422" width="8.339" height="359.592"></rect>
  </g>
  <g id="Ebene_23">
    <rect x="568.342" y="904.037" width="8.339" height="66.918"></rect>
  </g>
  <g id="Ebene_22">
    <rect x="539.285" y="466.422" width="8.339" height="359.592"></rect>
  </g>
  <g id="Ebene_21">
    <rect x="539.285" y="904.037" width="8.339" height="66.918"></rect>
  </g>
  <g id="Ebene_20">
    <rect x="510.227" y="466.422" width="8.339" height="359.592"></rect>
  </g>
  <g id="Ebene_19">
    <rect x="510.227" y="904.037" width="8.339" height="66.918"></rect>
  </g>
  <g id="Ebene_18">
    <path d="M605.739,290.443c5.492,0,9.945-4.453,9.945-9.945c0-5.492-4.453-9.945-9.945-9.945c-5.492,0-9.945,4.453-9.945,9.945
                C595.794,285.99,600.247,290.443,605.739,290.443"></path>
  </g>
  <g id="Ebene_17" data-svg-origin="605.7395324707031 280.49800872802734" style="transform: matrix(1, 0, 0, 1, 0, 0);">
    <path d="M605.739,332.41c-28.624,0-51.912-23.288-51.912-51.912s23.288-51.912,51.912-51.912c28.625,0,51.913,23.288,51.913,51.912
                S634.364,332.41,605.739,332.41 M605.739,236.885c-24.049,0-43.613,19.565-43.613,43.613c0,24.049,19.564,43.613,43.613,43.613
                s43.614-19.564,43.614-43.613C649.353,256.45,629.788,236.885,605.739,236.885"></path>
  </g>
  <g id="Ebene_16" data-svg-origin="605.7395324707031 280.4974822998047" style="transform: matrix(1, 0, 0, 1, 0, 0);">
    <path d="M605.739,201.09c-43.785,0-79.407,35.622-79.407,79.408c0,43.785,35.622,79.407,79.407,79.407
                c43.786,0,79.408-35.622,79.408-79.407C685.146,236.712,649.525,201.09,605.739,201.09 M605.739,351.606
                c-39.209,0-71.108-31.899-71.108-71.108c0-39.21,31.899-71.109,71.108-71.109c39.21,0,71.109,31.899,71.109,71.109
                C676.848,319.708,644.949,351.606,605.739,351.606"></path>
  </g>
  <g id="Ebene_15" data-svg-origin="605.7395172119141 280.4984893798828" style="transform: matrix(1, 0, 0, 1, 0, 0);">
    <path d="M605.739,173.595c-58.946,0-106.902,47.957-106.902,106.904c0,58.946,47.956,106.903,106.902,106.903
                s106.903-47.957,106.903-106.903C712.642,221.552,664.685,173.595,605.739,173.595 M605.739,379.103
                c-54.371,0-98.604-44.234-98.604-98.604c0-54.371,44.233-98.605,98.604-98.605s98.604,44.234,98.604,98.605
                C704.343,334.869,660.11,379.103,605.739,379.103"></path>
  </g>
  <g id="Ebene_14" data-svg-origin="605.739013671875 280.4984893798828" style="transform: matrix(1, 0, 0, 1, 0, 0);">
    <path d="M605.739,146.1c-74.107,0-134.398,60.291-134.398,134.398c0,74.108,60.291,134.399,134.398,134.399
                c74.108,0,134.398-60.291,134.398-134.399C740.137,206.391,679.847,146.1,605.739,146.1 M605.739,406.598
                c-69.531,0-126.099-56.568-126.099-126.1c0-69.532,56.568-126.1,126.099-126.1c69.532,0,126.1,56.568,126.1,126.1
                C731.839,350.03,675.271,406.598,605.739,406.598"></path>
  </g>
  <g id="Ebene_13" data-svg-origin="605.739013671875 280.4979782104492" style="transform: matrix(1, 0, 0, 1, 0, 0);">
    <path d="M605.739,118.604c-89.268,0-161.894,72.626-161.894,161.894s72.626,161.894,161.894,161.894
                s161.894-72.626,161.894-161.894S695.007,118.604,605.739,118.604 M605.739,434.093c-84.693,0-153.595-68.902-153.595-153.595
                s68.902-153.595,153.595-153.595s153.595,68.902,153.595,153.595S690.432,434.093,605.739,434.093"></path>
  </g>
  <g id="Ebene_12">
    <rect fill="none" width="1600" height="994.191"></rect>
  </g>
  <g id="Ebene_11">

    <rect x="1033.213" y="155.899" transform="matrix(0.8301 0.5576 -0.5576 0.8301 296.304 -652.3145)" width="370.646" height="8.299"></rect>
  </g>
  <g id="Ebene_10">

    <rect x="1061.201" y="135.161" transform="matrix(0.5476 0.8367 -0.8367 0.5476 756.7455 -742.8059)" width="8.299" height="386.612"></rect>
  </g>
  <g id="Ebene_9">
    <path d="M946.494,968.729c-138.055,0-250.371-112.666-250.371-251.154c0-138.486,112.316-251.153,250.371-251.153
                c138.056,0,250.371,112.667,250.371,251.153C1196.865,856.063,1084.55,968.729,946.494,968.729 M946.494,474.721
                c-133.494,0-242.097,108.944-242.097,242.854c0,133.912,108.603,242.855,242.097,242.855s242.098-108.943,242.098-242.855
                C1188.592,583.665,1079.988,474.721,946.494,474.721"></path>
    <circle fill="transparent" cx="946.494" cy="717.576" r="243.615"></circle>
  </g>
  <g id="Ebene_8">
    <path d="M1036.772,900.757c34.744,0,62.908-28.252,62.908-63.104s-28.164-63.106-62.908-63.106s-62.908,28.254-62.908,63.106
                S1002.028,900.757,1036.772,900.757"></path>
  </g>
  <g id="Ebene_7">
    <rect x="5.981" fill="none" width="1595.016" height="994.191"></rect>
  </g>
  <g id="Ebene_6">
    <g>
      <defs>
        <rect id="SVGID_19_" width="1600" height="994.191"></rect>
      </defs>
      <clippath id="SVGID_20_">
        <use xlink:href="#SVGID_19_" overflow="visible"></use>
      </clippath>
      <path clip-path="url(#SVGID_20_)" d="M1001.724,256.58c22.043,0,39.912-17.869,39.912-39.912s-17.869-39.912-39.912-39.912
                    s-39.912,17.869-39.912,39.912S979.681,256.58,1001.724,256.58"></path>
    </g>
  </g>
  <g id="Ebene_5">
    <g>
      <defs>
        <rect id="SVGID_21_" width="1600" height="994.191"></rect>
      </defs>
      <clippath id="SVGID_22_">
        <use xlink:href="#SVGID_21_" overflow="visible"></use>
      </clippath>
      <path clip-path="url(#SVGID_22_)" d="M1314.229,558.542c22.043,0,39.911-17.869,39.911-39.912s-17.868-39.912-39.911-39.912
                    c-22.044,0-39.912,17.869-39.912,39.912S1292.185,558.542,1314.229,558.542"></path>
    </g>
  </g>
  <g id="Ebene_4">
    <g>
      <defs>
        <rect id="SVGID_23_" width="1600" height="994.191"></rect>
      </defs>
      <clippath id="SVGID_24_">
        <use xlink:href="#SVGID_23_" overflow="visible"></use>
      </clippath>
      <path clip-path="url(#SVGID_24_)" d="M1408.392,198.604c33.995,0,61.556-27.558,61.556-61.555
                    c0-33.995-27.561-61.554-61.556-61.554s-61.555,27.559-61.555,61.554C1346.837,171.046,1374.396,198.604,1408.392,198.604"></path>
    </g>
  </g>
  <g id="Ebene_3">
    <g>
      <defs>
        <rect id="SVGID_25_" width="1600" height="994.191"></rect>
      </defs>
      <clippath id="SVGID_26_">
        <use xlink:href="#SVGID_25_" overflow="visible"></use>
      </clippath>
      <path clip-path="url(#SVGID_26_)" d="M1408.392,415.583c33.995,0,61.556-27.558,61.556-61.555
                    c0-33.995-27.561-61.554-61.556-61.554s-61.555,27.559-61.555,61.554C1346.837,388.026,1374.396,415.583,1408.392,415.583"></path>
    </g>
  </g>
  <g id="Ebene_2">
    <g>
      <defs>
        <rect id="SVGID_27_" width="1600" height="994.191"></rect>
      </defs>
      <clippath id="SVGID_28_">
        <use xlink:href="#SVGID_27_" overflow="visible"></use>
      </clippath>
      <path clip-path="url(#SVGID_28_)" d="M1398.777,739.556c33.995,0,61.555-27.558,61.555-61.555
                    c0-33.995-27.56-61.554-61.555-61.554s-61.555,27.559-61.555,61.554C1337.223,711.999,1364.782,739.556,1398.777,739.556"></path>
    </g>
  </g>
  <rect id="starter" x="800" width="800" height="994.191px" style="fill:transparent;stroke-width:0;stroke:rgb(0,0,0)"></rect>
  <rect id="starter-cicle" x="600" y="450" width="700" height="550" style="fill:transparent;stroke-width:0;stroke:rgb(0,0,0)"></rect>
  <rect id="starter-balls" x="0" y="0" width="800" height="994.191px" style="fill:transparent;stroke-width:0;stroke:rgb(0,0,0)"></rect>
</svg>