<svg version="1.1" id="Ebene_111" 
  xmlns="http://www.w3.org/2000/svg" 
  xmlns:xlink="http://www.w3.org/1999/xlink" x="0px" y="0px" width="147.3px" height="56.1px" viewBox="0 0 147.3 56.1" style="enable-background:new 0 0 147.3 56.1;" xml:space="preserve">
  <path id="letter-2" fill="none" stroke="#000000" stroke-width="1" d="M33.5,10.5C31,8.2,26.6,6.2,19.2,6.2H4.7v42.2h14.9c7.5,0,12.1-2,15.5-6.2c2.8-3.5,4.4-8.7,4.4-15.5
            C39.5,19.4,37.5,14,33.5,10.5z M30.3,39.3c-2.6,3.4-6.7,4.2-10.8,4.2h-9.2V11h9.1c3.4,0,5.9,0.4,7.7,1.4c4.2,2.3,6.7,6.8,6.7,14.6
            C33.8,32.8,32.4,36.6,30.3,39.3z" style="stroke-dashoffset: 160px;"></path>
  <path class="letter-e" d="M44.3,37.2l5.3-0.2c0.5,4.8,3.9,7.7,8.4,7.7c6.1,0,8.9-5,8.9-10c0-6.1-3.4-9.6-8.8-9.6c-3.2,0-6.5,1.8-8.3,4.1
            l-4.5-0.4l4-21.7h20.8v4.7H53.3L51,23.4c2.2-1.9,5.1-2.8,7.9-2.8c9.6,0,13.3,7.7,13.3,14c0,7-4.7,14.5-14.5,14.5
            C50.3,49,44.8,44.4,44.3,37.2z" style="stroke-dashoffset: 225px;"></path>
  <path class="st0" d="M77.1,30.3h31.2v4.4H77.1V30.3z" style="stroke-dashoffset: 80px;"></path>
  <path class="st1" d="M137.1,33.8V6.9H133l-19.2,26.7v4.8h18.4v9.9h5v-9.9h5.7v-4.6H137.1z M132.3,33.8h-13.6l13.5-19.2h0.1V33.8z" style="stroke-dashoffset: 130px;"></path>
</svg>